<?xml version="1.0" standalone="no"?>
<!DOCTYPE svg PUBLIC "-//W3C//DTD SVG 20010904//EN"
 "http://www.w3.org/TR/2001/REC-SVG-20010904/DTD/svg10.dtd">
<svg version="1.0" xmlns="http://www.w3.org/2000/svg"
 width="512.000000pt" height="512.000000pt" viewBox="0 0 512.000000 512.000000"
 preserveAspectRatio="xMidYMid meet">
<metadata>
Created by potrace 1.14, written by Peter Selinger 2001-2017
</metadata>
<g transform="translate(0.000000,512.000000) scale(0.100000,-0.100000)"
fill="#000000" stroke="none">
<path d="M2927 4256 c-31 -9 -62 -27 -87 -51 -43 -42 -52 -66 -115 -290 -20
-71 -43 -152 -52 -180 -8 -27 -16 -57 -18 -65 -3 -16 -117 -413 -140 -490 -7
-25 -84 -292 -170 -595 -86 -302 -160 -563 -166 -580 -5 -16 -34 -118 -64
-225 -30 -107 -59 -208 -64 -225 -36 -112 -131 -463 -131 -484 0 -108 93 -210
198 -216 81 -5 167 42 201 110 11 22 45 130 76 240 31 110 65 229 75 265 23
73 309 1076 315 1100 4 20 102 364 120 420 7 25 57 198 110 385 52 187 100
351 104 365 31 86 82 297 80 328 -6 86 -81 173 -166 193 -47 11 -47 11 -106
-5z"/>
<path d="M1426 3615 c-21 -7 -47 -21 -59 -31 -12 -11 -221 -218 -465 -461
-289 -288 -447 -454 -457 -477 -19 -45 -19 -127 0 -172 18 -44 903 -932 955
-959 22 -12 56 -19 91 -19 149 1 249 138 203 278 -15 46 -52 86 -378 413 -199
199 -361 367 -361 373 0 6 162 174 361 373 387 389 393 396 389 492 -5 136
-150 234 -279 190z"/>
<path d="M3570 3617 c-52 -13 -106 -57 -131 -107 -28 -56 -30 -140 -4 -190 10
-19 179 -197 377 -394 197 -198 358 -362 358 -366 0 -4 -161 -169 -358 -366
-198 -197 -367 -375 -377 -394 -37 -72 -18 -184 41 -244 61 -60 171 -79 244
-41 53 27 936 913 955 958 22 52 19 131 -6 182 -13 27 -177 197 -472 492 -409
407 -457 451 -502 466 -53 18 -71 18 -125 4z"/>
</g>
</svg>
